<svg xmlns="http://www.w3.org/2000/svg" width="31.325" height="44.651" viewBox="0 0 31.325 44.651">
  <g id="Group_52" data-name="Group 52" transform="translate(-1369 -3646.984)">
    <ellipse id="Ellipse_4" data-name="Ellipse 4" cx="8.5" cy="11" rx="8.5" ry="11" transform="translate(1377 3652.635)" fill="#fff"/>
    <ellipse id="Ellipse_3" data-name="Ellipse 3" cx="15.663" cy="3.133" rx="15.663" ry="3.133" transform="translate(1369 3685.37)" fill="rgba(88,88,88,0.27)"/>
    <path id="map-marker-alt-solid" d="M13.969,40.681C2.187,23.6,0,21.847,0,15.569a15.569,15.569,0,1,1,31.139,0c0,6.277-2.187,8.031-13.969,25.111a1.947,1.947,0,0,1-3.2,0Zm1.6-18.624a6.487,6.487,0,1,0-6.487-6.487A6.487,6.487,0,0,0,15.569,22.057Z" transform="translate(1369 3646.984)" fill="#728491"/>
  </g>
</svg>
