<svg xmlns="http://www.w3.org/2000/svg" xmlns:xlink="http://www.w3.org/1999/xlink" width="41.107" height="41.417" viewBox="0 0 41.107 41.417">
  <defs>
    <clipPath id="clip-path">
      <path id="Path_19" data-name="Path 19" d="M0-386.78H41.108v41.417H0Z" transform="translate(0 386.78)" fill="#f79482"/>
    </clipPath>
  </defs>
  <g id="Group_46" data-name="Group 46" clip-path="url(#clip-path)">
    <g id="Group_45" data-name="Group 45" transform="translate(0 0)">
      <path id="Path_18" data-name="Path 18" d="M-20.3-233.317a11.035,11.035,0,0,1,2.652-7.21A11.047,11.047,0,0,1-15-233.317a11.037,11.037,0,0,1-2.42,6.913l-.256.256a11.035,11.035,0,0,1-2.627-7.17m7.7-7.7a11.035,11.035,0,0,1,2.652-7.21A11.107,11.107,0,0,1-9.721-234.1l-.256.257a11.035,11.035,0,0,1-2.626-7.17m7.7-7.7a11.035,11.035,0,0,1,2.652-7.21A11.107,11.107,0,0,1-2.022-241.8l-.256.257A11.035,11.035,0,0,1-4.9-248.716m17.93-6.809a11.14,11.14,0,0,1-10.2,10.2,11.14,11.14,0,0,1,10.2-10.2M10.859-237.68a11.121,11.121,0,0,1-14.42,0,11.13,11.13,0,0,1,14.42,0M3.246-229.9a11.121,11.121,0,0,1-14.419,0,11.121,11.121,0,0,1,14.419,0m-24.77,10.015,4.171-4.17a.855.855,0,0,0,.307-.193,12.791,12.791,0,0,0,.934-1.051l3.558-3.557a12.8,12.8,0,0,0,17.663-.439.856.856,0,0,0,0-1.21,12.866,12.866,0,0,0-12.8-3.211l2.845-2.845a12.8,12.8,0,0,0,17.572-.521.856.856,0,0,0,0-1.21,12.832,12.832,0,0,0-12.58-3.26l2.036-2.038H6.406a16.809,16.809,0,0,0,11.964-4.956l-1.21-1.21A15.085,15.085,0,0,1,8.6-245.471a12.824,12.824,0,0,0,6.17-10.944.855.855,0,0,0-.855-.855,12.832,12.832,0,0,0-11.1,6.416,13.637,13.637,0,0,1,4-9.239l-1.21-1.2a15.333,15.333,0,0,0-4.277,8.222,12.74,12.74,0,0,0-2.979-4.713.855.855,0,0,0-1.21,0,12.809,12.809,0,0,0-.631,17.451l-2.525,2.525A12.825,12.825,0,0,0-9.347-250.09a.855.855,0,0,0-1.21,0,12.809,12.809,0,0,0-.63,17.451l-2.525,2.525a12.824,12.824,0,0,0-3.336-12.279.855.855,0,0,0-1.21,0,12.809,12.809,0,0,0-.63,17.452l-3.85,3.85Z" transform="translate(22.738 261.297)" fill="#f79482"/>
    </g>
  </g>
</svg>
