<svg xmlns="http://www.w3.org/2000/svg" width="53.993" height="53.993" viewBox="0 0 53.993 53.993">
  <g id="Group_381" data-name="Group 381" transform="translate(-1099 -1743)">
    <rect id="Rectangle_441" data-name="Rectangle 441" width="47.244" height="43.869" transform="translate(1102.375 1748.062)" fill="#f4f2f0"/>
    <path id="line" d="M32.793,52.753v8.569a.381.381,0,0,1-.386.386H31.034a.4.4,0,0,1-.313-.157l-3.929-5.3v5.086a.381.381,0,0,1-.386.386H25.032a.381.381,0,0,1-.386-.386V52.765a.381.381,0,0,1,.386-.386h1.362a.364.364,0,0,1,.313.169l3.929,5.3V52.765a.381.381,0,0,1,.386-.386H32.4A.381.381,0,0,1,32.793,52.753Zm-9.883-.386H21.537a.381.381,0,0,0-.386.386v8.569a.381.381,0,0,0,.386.386h1.374a.381.381,0,0,0,.386-.386V52.753A.388.388,0,0,0,22.911,52.368ZM19.6,59.551H15.848v-6.8a.381.381,0,0,0-.386-.386H14.089a.381.381,0,0,0-.386.386v8.569a.354.354,0,0,0,.108.265.407.407,0,0,0,.265.108h5.508a.381.381,0,0,0,.386-.386V59.936a.386.386,0,0,0-.374-.386Zm20.428-7.183H34.517a.388.388,0,0,0-.386.386v8.569a.388.388,0,0,0,.386.386h5.508a.381.381,0,0,0,.386-.386V59.948a.381.381,0,0,0-.386-.386H36.276V58.117h3.748a.381.381,0,0,0,.386-.386V56.345a.381.381,0,0,0-.386-.386H36.276V54.513h3.748a.381.381,0,0,0,.386-.386V52.753A.405.405,0,0,0,40.025,52.368ZM53.993,41.846V76.231a9.817,9.817,0,0,1-9.847,9.762H9.762A9.824,9.824,0,0,1,0,76.146V41.762A9.824,9.824,0,0,1,9.846,32H44.231A9.817,9.817,0,0,1,53.993,41.846ZM46.569,56.622c0-8.8-8.822-15.957-19.657-15.957S7.255,47.824,7.255,56.622c0,7.882,6.99,14.487,16.439,15.74,2.3.494,2.037,1.338,1.519,4.435-.084.494-.4,1.94,1.7,1.061s11.317-6.665,15.451-11.413C45.207,63.311,46.569,60.141,46.569,56.622Z" transform="translate(1099 1711)" fill="#7cc64d"/>
  </g>
</svg>
