<svg xmlns="http://www.w3.org/2000/svg" xmlns:xlink="http://www.w3.org/1999/xlink" width="191" height="53.293" viewBox="0 0 191 53.293">
  <defs>
    <clipPath id="clip-path">
      <path id="Path_89" data-name="Path 89" d="M0-144H191v53.293H0Z" transform="translate(0 144)" fill="none"/>
    </clipPath>
  </defs>
  <g id="Group_354" data-name="Group 354" transform="translate(0 144)">
    <g id="Group_107" data-name="Group 107" transform="translate(0 -144)" clip-path="url(#clip-path)">
      <g id="Group_89" data-name="Group 89" transform="translate(0.949 6.147)">
        <path id="Path_69" data-name="Path 69" d="M-10.955-8.677l-.017.013-.015.014c-.234.211-5.322,4.846-6.4,9.289L1.829,11.218l5.18-4.525L-.89-13.775c-4.548.476-9.825,4.9-10.065,5.1" transform="translate(17.391 13.775)" fill="#f4f1ef"/>
      </g>
      <g id="Group_90" data-name="Group 90" transform="translate(-0.001 24.064)">
        <path id="Path_70" data-name="Path 70" d="M-30.84-15.091l-16.281-8.867a19.71,19.71,0,0,0-1.825,6.88A4.454,4.454,0,0,0-47.8-13.734a4.37,4.37,0,0,0,.511.479l15.541.567.92-2.413Z" transform="translate(48.96 23.958)" fill="#f4f1ef"/>
      </g>
      <g id="Group_91" data-name="Group 91" transform="translate(20.801 6.585)">
        <path id="Path_71" data-name="Path 71" d="M-12.021-.051a19.724,19.724,0,0,0-7.062.884l6.6,17.325,2.506-.578L-8.455,2.107v0h0a4.383,4.383,0,0,0-.406-.57,4.456,4.456,0,0,0-3.16-1.583" transform="translate(19.083 0.081)" fill="#f4f1ef"/>
      </g>
      <g id="Group_92" data-name="Group 92" transform="translate(32.784 10.343)">
        <path id="Path_72" data-name="Path 72" d="M-4.993-1.245a15.589,15.589,0,0,0-1.791-.732L-7.926,9.61a19.824,19.824,0,0,1,6,.639A2.855,2.855,0,0,0,.67,9.6c.053-.047.1-.095.154-.144a2.83,2.83,0,0,0,.795-2.7,11.926,11.926,0,0,0-6.612-8" transform="translate(7.926 1.977)" fill="#f4f1ef"/>
      </g>
      <g id="Group_93" data-name="Group 93" transform="translate(2.892 37.453)">
        <path id="Path_73" data-name="Path 73" d="M0,0A15.358,15.358,0,0,0,.484,1.872,11.925,11.925,0,0,0,7.524,9.5,2.829,2.829,0,0,0,10.3,9.075c.056-.043.111-.087.163-.134A2.851,2.851,0,0,0,11.46,6.46,19.819,19.819,0,0,1,11.635.424Z" fill="#f4f1ef"/>
      </g>
      <g id="Group_94" data-name="Group 94" transform="translate(81.224 1.066)">
        <path id="Path_74" data-name="Path 74" d="M-9.514-40.171H-7.34c2.678,0,4.5-.97,4.5-4.192s-1.825-4.154-4.27-4.154H-9.514Zm0-12.228h1.591c3.105,0,4.464-1.01,4.464-3.649S-4.7-59.657-7.5-59.657H-9.514ZM-15.1-63.772h9.355c4.581,0,7.88,1.708,7.88,7.026,0,2.989-1.4,5.28-4.192,6.056v.078c3.105.427,5.046,2.717,5.046,6.444,0,4.348-2.135,8.113-8.656,8.113H-15.1Z" transform="translate(15.104 63.772)" fill="#f4f1ef"/>
      </g>
      <g id="Group_95" data-name="Group 95" transform="translate(104.747 1.066)">
        <path id="Path_75" data-name="Path 75" d="M-9.514-20.614h2.329c2.678,0,4.192-1.165,4.192-4.154,0-2.562-1.281-3.843-3.882-3.843H-9.514ZM-15.1-32.726H-4.778c4.619,0,7.376,2.368,7.376,7.143,0,3.727-1.476,6.172-4.62,6.832v.078c3.8.5,4.348,2.6,4.464,8.463.038,2.95.194,4.386,1.242,4.969v.233H-2.371a5.077,5.077,0,0,1-.7-2.911l-.155-5.318c-.117-2.174-1.009-3.494-3.3-3.494H-9.514V-5.01H-15.1Z" transform="translate(15.104 32.726)" fill="#f4f1ef"/>
      </g>
      <g id="Group_96" data-name="Group 96" transform="translate(128.27 1.066)">
        <path id="Path_76" data-name="Path 76" d="M-26.362,0V4.581h-9.9V11.1h9.316v4.581h-9.316v7.453h10.287v4.581H-41.851V0Z" transform="translate(41.851)" fill="#f4f1ef"/>
      </g>
      <g id="Group_97" data-name="Group 97" transform="translate(146.942 1.066)">
        <path id="Path_77" data-name="Path 77" d="M-13.743-29.4h5.434l-2.679-12.461h-.077Zm-.738-17.274h6.91L-.234-18.959H-6.057l-1.281-5.862h-7.376l-1.281,5.862h-5.823Z" transform="translate(21.817 46.676)" fill="#f4f1ef"/>
      </g>
      <g id="Group_98" data-name="Group 98" transform="translate(172.678 1.066)">
        <path id="Path_78" data-name="Path 78" d="M-9.514-40.171H-7.03c3.882,0,4.658-2.446,4.658-9.976,0-6.289-.543-9.511-4.775-9.511H-9.514Zm-5.59-23.6h9.161c7.725,0,9.161,5.279,9.161,13.47,0,9.782-2.1,14.246-9.511,14.246H-15.1Z" transform="translate(15.104 63.772)" fill="#f4f1ef"/>
      </g>
      <g id="Group_99" data-name="Group 99" transform="translate(81.513 40.428)">
        <path id="Path_79" data-name="Path 79" d="M-8.142-4.91c0-1.087-.391-1.841-1.609-1.841A1.53,1.53,0,0,0-11.462-5.07c0,2.914,4.885,1.174,4.885,4.958A2.907,2.907,0,0,1-9.795,2.962c-2.421,0-3.131-1.247-3.131-3.451h1.276c0,1.16.087,2.407,1.943,2.407A1.743,1.743,0,0,0-7.91.091c0-2.928-4.885-1.232-4.885-5.03A2.706,2.706,0,0,1-9.766-7.8c1.986,0,2.856.971,2.9,2.885Z" transform="translate(12.926 7.795)" fill="#f4f1ef"/>
      </g>
      <path id="Path_80" data-name="Path 80" d="M254.6-34.212h1.276v10.35H254.6Z" transform="translate(-160.377 74.844)" fill="#f4f1ef"/>
      <g id="Group_100" data-name="Group 100" transform="translate(102.258 40.632)">
        <path id="Path_81" data-name="Path 81" d="M0,0H1.653L5.074,8.64H5.1V0H6.378V10.35H4.624L1.3,1.971H1.276V10.35H0Z" fill="#f4f1ef"/>
      </g>
      <g id="Group_101" data-name="Group 101" transform="translate(115.248 40.428)">
        <path id="Path_82" data-name="Path 82" d="M-11.029-11.917c-.116,1.957-.885,3.755-3.146,3.755-2.943,0-3.334-2.769-3.334-5.379s.479-5.378,3.334-5.378c2.1,0,3,1.189,3.059,3.218H-12.45c-.043-1.174-.406-2.175-1.725-2.175-1.768,0-2,1.943-2,4.335s.232,4.335,2,4.335c1.551,0,1.769-1.45,1.812-2.711Z" transform="translate(17.509 18.919)" fill="#f4f1ef"/>
      </g>
      <g id="Group_102" data-name="Group 102" transform="translate(127.99 40.632)">
        <path id="Path_83" data-name="Path 83" d="M0,0H5.349V1.131H1.276V4.378H5.117V5.508H1.276V9.219H5.523V10.35H0Z" fill="#f4f1ef"/>
      </g>
      <g id="Group_103" data-name="Group 103" transform="translate(148.46 40.719)">
        <path id="Path_84" data-name="Path 84" d="M0-2.862c1.29-.072,2.464-.217,2.537-1.681h.87V5.72H2.189V-1.992H0Z" transform="translate(0 4.543)" fill="#f4f1ef"/>
      </g>
      <g id="Group_104" data-name="Group 104" transform="translate(160.029 40.719)">
        <path id="Path_85" data-name="Path 85" d="M-4.935-1.628c-1.276,0-1.624,1.29-1.624,2.377s.276,2.377,1.624,2.377S-3.311,1.836-3.311.749s-.348-2.377-1.624-2.377M-6.327,5.417A1.347,1.347,0,0,0-4.978,6.924c1.7,0,1.812-2.565,1.812-3.087V3.025H-3.2A2.2,2.2,0,0,1-5.152,4.17c-1.783,0-2.682-1.334-2.682-3.247,0-1.986.986-3.508,2.9-3.508,2.841,0,3.044,2.754,3.044,4.87,0,2.349-.145,5.6-3.117,5.6A2.4,2.4,0,0,1-7.6,5.417Z" transform="translate(7.834 2.585)" fill="#f4f1ef"/>
      </g>
      <g id="Group_105" data-name="Group 105" transform="translate(172.061 40.719)">
        <path id="Path_86" data-name="Path 86" d="M-4.935-1.628c-1.276,0-1.624,1.29-1.624,2.377s.276,2.377,1.624,2.377S-3.311,1.836-3.311.749s-.348-2.377-1.624-2.377M-6.327,5.417A1.347,1.347,0,0,0-4.978,6.924c1.7,0,1.812-2.565,1.812-3.087V3.025H-3.2A2.2,2.2,0,0,1-5.152,4.17c-1.783,0-2.682-1.334-2.682-3.247,0-1.986.986-3.508,2.9-3.508,2.841,0,3.044,2.754,3.044,4.87,0,2.349-.145,5.6-3.117,5.6A2.4,2.4,0,0,1-7.6,5.417Z" transform="translate(7.834 2.585)" fill="#f4f1ef"/>
      </g>
      <g id="Group_106" data-name="Group 106" transform="translate(184.137 40.719)">
        <path id="Path_87" data-name="Path 87" d="M-4.984-16.185c1.565,0,1.653-2.073,1.653-4.233,0-2.261-.087-4.319-1.653-4.319s-1.652,2.058-1.652,4.319c0,2.16.087,4.233,1.652,4.233m-2.928-4.233c0-2.261.145-5.276,2.928-5.276s2.928,2.768,2.928,5.276c0,2.16-.145,5.19-2.928,5.19s-2.928-2.754-2.928-5.19" transform="translate(7.912 25.694)" fill="#f4f1ef"/>
      </g>
      <path id="Path_88" data-name="Path 88" d="M169.64-90.707h-1.11V-144h1.11Z" transform="translate(-106.159 144)" fill="#f4f1ef"/>
    </g>
  </g>
</svg>
