<svg xmlns="http://www.w3.org/2000/svg" width="41.06" height="39.172" viewBox="0 0 41.06 39.172">
  <g id="croissant" transform="translate(-58.524 -44.426) rotate(-40)">
    <g id="Group_20" data-name="Group 20" transform="translate(9.867 83.189)">
      <g id="Group_19" data-name="Group 19" transform="translate(0 0)">
        <path id="Path_3" data-name="Path 3" d="M140.83,83.19h-.036c-.268,0-6.139.127-9.329,2.373l6.412,17.584h5.868l6.412-17.584C146.969,83.317,141.1,83.194,140.83,83.19Z" transform="translate(-131.465 -83.189)" fill="#728491"/>
      </g>
    </g>
    <g id="Group_22" data-name="Group 22" transform="translate(2.296 88.313)">
      <g id="Group_21" data-name="Group 21">
        <path id="Path_4" data-name="Path 4" d="M42.244,166.292l-5.485-14.835a16.828,16.828,0,0,0-5.034,3.4,3.8,3.8,0,0,0-1.142,2.791,3.736,3.736,0,0,0,.059.594l9.667,9.088,1.946-1.034Z" transform="translate(-30.582 -151.457)" fill="#728491"/>
      </g>
    </g>
    <g id="Group_24" data-name="Group 24" transform="translate(24.47 88.313)">
      <g id="Group_23" data-name="Group 23" transform="translate(0 0)">
        <path id="Path_5" data-name="Path 5" d="M336.557,154.854a16.826,16.826,0,0,0-5.034-3.4l-5.485,14.835,1.934,1.034,9.664-9.086,0,0h0a3.724,3.724,0,0,0,.059-.594A3.8,3.8,0,0,0,336.557,154.854Z" transform="translate(-326.039 -151.458)" fill="#728491"/>
      </g>
    </g>
    <g id="Group_26" data-name="Group 26" transform="translate(29.555 97.508)">
      <g id="Group_25" data-name="Group 25" transform="translate(0 0)">
        <path id="Path_6" data-name="Path 6" d="M401.764,275.448a13.217,13.217,0,0,0-.74-1.475l-7.237,6.8a16.9,16.9,0,0,1,3.5,3.78,2.436,2.436,0,0,0,2.03,1.037c.06,0,.12,0,.18-.006a2.414,2.414,0,0,0,2.025-1.288A10.174,10.174,0,0,0,401.764,275.448Z" transform="translate(-393.787 -273.973)" fill="#728491"/>
      </g>
    </g>
    <g id="Group_28" data-name="Group 28" transform="translate(0 97.508)">
      <g id="Group_27" data-name="Group 27" transform="translate(0)">
        <path id="Path_7" data-name="Path 7" d="M1.635,273.972a13.236,13.236,0,0,0-.74,1.475,10.174,10.174,0,0,0,.242,8.852,2.414,2.414,0,0,0,2.025,1.288c.06,0,.12.006.18.006a2.436,2.436,0,0,0,2.03-1.037,16.9,16.9,0,0,1,3.5-3.78Z" transform="translate(0 -273.972)" fill="#728491"/>
      </g>
    </g>
  </g>
</svg>
