<svg xmlns="http://www.w3.org/2000/svg" width="57.487" height="49.908" viewBox="0 0 57.487 49.908">
  <g id="bread-silhouette-side-view" transform="matrix(0.839, -0.545, 0.545, 0.839, -6.427, 18.265)">
    <g id="Group_41" data-name="Group 41" transform="translate(0 11.801)">
      <g id="Path_14" data-name="Path 14" transform="translate(0 -11.801)" fill="none">
        <path d="M43.3,16.214c-.015-.009-.027-.019-.042-.027a.995.995,0,0,0-1.541.9,38.515,38.515,0,0,1-.246,7.714.342.342,0,0,1-.674.022,44.353,44.353,0,0,0-3.993-11.255,1,1,0,0,0-.616-.5A36.725,36.725,0,0,0,28.454,11.8a1,1,0,0,0-1.022,1.228,38.2,38.2,0,0,1,.535,12.061.341.341,0,0,1-.666.06c-.856-2.97-2.8-9.277-4.718-12.56a1,1,0,0,0-.952-.489,22.871,22.871,0,0,0-7.351,1.631h0a.751.751,0,0,0-.632.943,36.314,36.314,0,0,1,.049,10.2.31.31,0,0,1-.328.259.356.356,0,0,1-.345-.293,42.332,42.332,0,0,0-2.565-8.2,1.232,1.232,0,0,0-1.753-.59C2.686,19.549,0,23.634,0,27.805c0,8.873,11.575,9.925,25.854,9.925s25.853-1.052,25.853-9.925C51.71,23.981,49.323,20.219,43.3,16.214Z" stroke="none"/>
        <path d="M 29.65931510925293 13.89759063720703 C 30.47542953491211 18.30805397033691 30.2092113494873 22.8504810333252 29.95650672912598 25.29655838012695 L 29.95608711242676 25.30058860778809 L 29.95565795898438 25.30461883544922 C 29.83622932434082 26.41654968261719 28.94582748413086 27.29021835327148 27.83556938171387 27.38786506652832 C 27.76624870300293 27.39409446716309 27.69595718383789 27.39724922180176 27.62643814086914 27.39724922180176 C 26.5888671875 27.39724922180176 25.66439819335938 26.70024871826172 25.37913703918457 25.70520782470703 C 24.6732006072998 23.25693130493164 22.90671348571777 17.44176864624023 21.1652889251709 14.15666961669922 C 19.32436752319336 14.34774017333984 17.44064712524414 14.63996124267578 15.75243759155273 15.2843132019043 C 16.24840927124023 19.15197944641113 15.99453353881836 22.7386589050293 15.67681884765625 25.13836860656738 L 15.67594909667969 25.14488792419434 L 15.675048828125 25.15139770507812 C 15.52044677734375 26.26280784606934 14.57683563232422 27.09646797180176 13.43328857421875 27.13358879089355 C 13.40771865844727 27.13444900512695 13.38207626342773 27.13486862182617 13.35658645629883 27.13486862182617 C 12.24475860595703 27.13486862182617 11.27876663208008 26.33449935913086 11.05918884277344 25.22933769226074 C 10.61059188842773 22.95693778991699 9.902587890625 20.60944747924805 8.951103210449219 18.2381706237793 C 6.647911071777344 19.66851043701172 4.890064239501953 21.21536064147949 3.718795776367188 22.8438892364502 C 2.578289031982422 24.42963790893555 1.999996185302734 26.09885787963867 1.999996185302734 27.80516815185547 C 1.999996185302734 29.4144287109375 2.479557037353516 30.69023895263672 3.466098785400391 31.70550918579102 C 4.458938598632812 32.72726821899414 6.029869079589844 33.55841827392578 8.135246276855469 34.17585754394531 C 10.18030548095703 34.77560806274414 12.73433685302734 35.18680953979492 15.94326782226562 35.43293762207031 C 18.58610916137695 35.63565826416016 21.73520660400391 35.73006820678711 25.85366821289062 35.73006820678711 C 29.97208786010742 35.73006820678711 33.12113952636719 35.63565826416016 35.76388549804688 35.43293762207031 C 38.97267913818359 35.18680953979492 41.52657699584961 34.77561950683594 43.57150650024414 34.17586898803711 C 45.67670822143555 33.55843734741211 47.24750518798828 32.72731018066406 48.24025726318359 31.70555877685547 C 49.22670745849609 30.69028854370117 49.70623779296875 29.41446876525879 49.70623779296875 27.80344772338867 C 49.70757675170898 26.23823928833008 49.19094848632812 24.74140930175781 48.12680816650391 23.22743797302246 C 47.15661239624023 21.84710121154785 45.70702743530273 20.43423652648926 43.80527496337891 19.01339721679688 C 43.84664154052734 21.44779205322266 43.65156936645508 23.58136749267578 43.4549674987793 25.06721878051758 L 43.45409774780273 25.07381820678711 L 43.45317840576172 25.08040809631348 C 43.29660797119141 26.20599937438965 42.35797882080078 27.05507850646973 41.22131729125977 27.0993480682373 L 41.21482849121094 27.0995979309082 L 41.20832824707031 27.09980773925781 C 41.18293762207031 27.10062789916992 41.15761566162109 27.10103797912598 41.13243865966797 27.10103797912598 C 40.03090667724609 27.10103797912598 39.06715774536133 26.31701850891113 38.84085845947266 25.23681831359863 L 38.83847808837891 25.2254581451416 L 38.83622741699219 25.21406936645508 C 37.97242736816406 20.83851623535156 36.27854537963867 16.99091339111328 35.22409820556641 14.87678527832031 C 33.08622741699219 14.31097793579102 31.09752655029297 14.03359603881836 29.65931510925293 13.89759063720703 M 28.39899635314941 11.80059051513672 C 28.41734504699707 11.80059051513672 28.4357738494873 11.80110168457031 28.4542179107666 11.80212783813477 C 30.2356071472168 11.89823913574219 33.10047912597656 12.20077896118164 36.18923950195312 13.06690979003906 C 36.45573806762695 13.14226913452148 36.67854690551758 13.32466888427734 36.80524826049805 13.57151031494141 C 37.97608947753906 15.85640716552734 39.8470458984375 20.00788879394531 40.79835510253906 24.82671928405762 C 40.83146286010742 24.9847583770752 40.97106170654297 25.10103988647461 41.13243103027344 25.10103988647461 C 41.1361083984375 25.10103988647461 41.13980102539062 25.10098075866699 41.14349746704102 25.10085868835449 C 41.31169891357422 25.09430885314941 41.44930648803711 24.96978759765625 41.47224807739258 24.80486869812012 C 41.70925903320312 23.01364898681641 41.94735717773438 20.21103858947754 41.71799850463867 17.09059906005859 C 41.68740844726562 16.71160888671875 41.87745666503906 16.35009002685547 42.20620727539062 16.15785980224609 C 42.36180114746094 16.06657791137695 42.53557586669922 16.0213508605957 42.70914077758789 16.02135848999023 C 42.90108489990234 16.02136611938477 43.0927619934082 16.07669830322266 43.25909805297852 16.18624877929688 C 43.27329635620117 16.19498825073242 43.28530883789062 16.20481872558594 43.30059814453125 16.21355819702148 C 49.32303619384766 20.21868896484375 51.70951843261719 23.98134803771973 51.70623779296875 27.80516815185547 C 51.70623779296875 36.67826843261719 40.13210678100586 37.73006820678711 25.85366821289062 37.73006820678711 C 11.57521820068359 37.73006820678711 -3.814697265625e-06 36.67826843261719 -3.814697265625e-06 27.80516815185547 C -3.814697265625e-06 23.63402938842773 2.685737609863281 19.54916763305664 8.703815460205078 16.0540885925293 C 8.892845153808594 15.94404602050781 9.105236053466797 15.88825607299805 9.319076538085938 15.88825607299805 C 9.451194763183594 15.88825607299805 9.583873748779297 15.90955352783203 9.711925506591797 15.95251846313477 C 10.0483283996582 16.06391906738281 10.31918716430664 16.31840896606445 10.45680618286133 16.64387893676758 C 11.40484619140625 18.88072776794434 12.40639877319336 21.72702789306641 13.02131652832031 24.84199905395508 C 13.05343627929688 25.0036563873291 13.19466018676758 25.1348705291748 13.35658645629883 25.1348705291748 C 13.35986328125 25.1348705291748 13.36316299438477 25.13481712341309 13.36645889282227 25.13470840454102 C 13.5346565246582 25.12924766540527 13.67117691040039 25.04077911376953 13.69411849975586 24.87585830688477 C 13.99446868896484 22.60734939575195 14.29592895507812 18.78351783752441 13.64496612548828 14.67463684082031 C 13.5717887878418 14.20716857910156 13.83500671386719 13.73205947875977 14.27735900878906 13.73205947875977 C 14.27844619750977 13.73205947875977 14.27844619750977 13.73205947875977 14.27953720092773 13.73205947875977 C 16.51419830322266 12.71957778930664 19.02190780639648 12.34494781494141 21.63009643554688 12.10138702392578 C 21.66107177734375 12.09848403930664 21.69191551208496 12.0970573425293 21.72264862060547 12.0970573425293 C 22.07336807250977 12.0970573425293 22.40274810791016 12.28341293334961 22.5825080871582 12.5906982421875 C 24.50369644165039 15.87387847900391 26.44455718994141 22.1813793182373 27.30084800720215 25.15109825134277 C 27.34270095825195 25.29707908630371 27.47707366943359 25.39724922180176 27.62644195556641 25.39724922180176 C 27.63688850402832 25.39724922180176 27.64743041992188 25.39675712585449 27.65799713134766 25.3957576751709 C 27.81964683532715 25.38264846801758 27.94961738586426 25.25376892089844 27.96709823608398 25.09102821350098 C 28.22921752929688 22.55382919311523 28.51865768432617 17.55697822570801 27.43190765380859 13.02976989746094 C 27.35982704162598 12.72394943237305 27.43409729003906 12.40065765380859 27.63506698608398 12.15927886962891 C 27.82626533508301 11.93107604980469 28.10547637939453 11.80059051513672 28.39899635314941 11.80059051513672 Z" stroke="none" fill="#f79482"/>
      </g>
    </g>
  </g>
</svg>
